C:\Users\israe\Dropbox\PhDWork\ExperimentalData/subject1/055/P1S055W01_EMG(MVC)_40ms.mot
nRows=11
nColumns=16

name C:\Users\israe\Dropbox\PhDWork\ExperimentalData/subject1/055/P1S055W01_EMG(MVC)_40ms.mot
datacolumns 16
datarows 11
range 1.9400000000 1.9500000000
endheader
time	BF	ST	VL	VM	RF	TFL	GE	GA	TA	GL	GM	SO	ES	MF	VI_a
        1.9400000000	        0.0746127600	        0.0391652361	        0.0085212305	        0.0219654359	        0.0126695027	        0.0299328848	        0.0662015287	        0.0133056987	        0.0250357947	        0.0307185629	        0.0210292610	        0.0275479041	        0.8622466541	        0.8831127798	        0.0152433332	
        1.9410000000	        0.0746235712	        0.0392095632	        0.0085210232	        0.0218967780	        0.0126252137	        0.0299061208	        0.0663124680	        0.0133103152	        0.0251414425	        0.0306312494	        0.0210478689	        0.0275500012	        0.8622691950	        0.8830007824	        0.0152089006	
        1.9420000000	        0.0746382273	        0.0392530300	        0.0085212464	        0.0218261560	        0.0125824928	        0.0298774314	        0.0664177615	        0.0133165502	        0.0252537060	        0.0305458131	        0.0210691881	        0.0275532385	        0.8622934180	        0.8828900304	        0.0151737012	
        1.9430000000	        0.0746573842	        0.0392952690	        0.0085219290	        0.0217538244	        0.0125414610	        0.0298470100	        0.0665176987	        0.0133244751	        0.0253727520	        0.0304624221	        0.0210932257	        0.0275577761	        0.8623201712	        0.8827799171	        0.0151378767	
        1.9440000000	        0.0746816135	        0.0393359868	        0.0085231129	        0.0216800719	        0.0125022073	        0.0298150591	        0.0666126326	        0.0133341707	        0.0254988603	        0.0303812153	        0.0211199713	        0.0275637356	        0.8623496698	        0.8826696202	        0.0151015924	
        1.9450000000	        0.0747113542	        0.0393749410	        0.0085248508	        0.0216051873	        0.0124647864	        0.0297817985	        0.0667028776	        0.0133457357	        0.0256324201	        0.0303023378	        0.0211494064	        0.0275711740	        0.8623812950	        0.8825585633	        0.0150650191	
        1.9460000000	        0.0747468922	        0.0394119010	        0.0085272085	        0.0215294224	        0.0124292356	        0.0297474994	        0.0667886711	        0.0133592829	        0.0257738703	        0.0302259206	        0.0211815195	        0.0275800822	        0.8624140979	        0.8824464941	        0.0150283154	
        1.9470000000	        0.0747883156	        0.0394465899	        0.0085302589	        0.0214529947	        0.0123955899	        0.0297124703	        0.0668702197	        0.0133749248	        0.0259236579	        0.0301520491	        0.0212162833	        0.0275903976	        0.8624473639	        0.8823334137	        0.0149916268	
        1.9480000000	        0.0748354816	        0.0394786230	        0.0085340698	        0.0213761137	        0.0123638874	        0.0296769836	        0.0669477045	        0.0133927602	        0.0260822392	        0.0300807723	        0.0212536292	        0.0276020079	        0.8624807431	        0.8822195381	        0.0149550917	
        1.9490000000	        0.0748880540	        0.0395075229	        0.0085386936	        0.0212989793	        0.0123341662	        0.0296412258	        0.0670212382	        0.0134128636	        0.0262500906	        0.0300121232	        0.0212934493	        0.0276147524	        0.8625142079	        0.8821052648	        0.0149188365	
        1.9500000000	        0.0749455889	        0.0395328498	        0.0085441653	        0.0212217514	        0.0123064473	        0.0296053202	        0.0670908808	        0.0134352882	        0.0264276882	        0.0299461418	        0.0213356097	        0.0276284395	        0.8625480151	        0.8819911269	        0.0148829583	
